<svg width="32" height="32" viewBox="0 0 32 32" fill="none" xmlns="http://www.w3.org/2000/svg">
<path d="M31.7177 16.3657L27.894 18.3303C27.7561 18.1859 27.5959 18.0658 27.4199 17.9751L25.9367 17.2141L16.8004 12.5224C16.552 12.3947 16.2781 12.3282 16.0004 12.3282C15.7227 12.3282 15.4488 12.3947 15.2004 12.5224L8.64843 15.8881L4.17822 13.6094C4.32126 13.6818 4.47877 13.7189 4.63822 13.7178C4.79767 13.7167 4.95467 13.6774 5.09674 13.603L15.2004 8.41296C15.4488 8.28525 15.7227 8.21875 16.0004 8.21875C16.2781 8.21875 16.552 8.28525 16.8004 8.41296L28.4063 14.3746L28.7808 14.567L31.0116 15.7128C31.3001 15.8608 31.5441 16.0865 31.7177 16.3657Z" fill="#cfaa25"/>
<path d="M27.8049 25.9456L23.369 28.2259L20.5916 26.7985L16.799 24.8504C16.5506 24.7227 16.2767 24.6562 15.999 24.6562C15.7212 24.6562 15.4473 24.7227 15.199 24.8504L6.27843 29.4322L3.98747 30.609L0.162598 28.6344C0.263241 28.4722 0.40488 28.3412 0.572374 28.2554L2.74925 27.137L3.5931 26.7036L15.199 20.7416C15.4473 20.6139 15.7212 20.5474 15.999 20.5474C16.2767 20.5474 16.5506 20.6139 16.799 20.7416L23.3352 24.0991L26.9041 25.9316C27.0433 26.0042 27.1968 26.0433 27.3529 26.0457C27.509 26.0481 27.6636 26.0139 27.8049 25.9456Z" fill="#cfaa25"/>
<path d="M31.836 8.0861L27.9998 10.0568L16.7999 4.30362C16.5515 4.1759 16.2776 4.10941 15.9999 4.10941C15.7222 4.10941 15.4482 4.1759 15.1999 4.30362L6.41592 8.81575L4.16734 9.97095C4.11453 9.99804 4.06408 10.0297 4.01652 10.0656L0.283203 8.14789C0.456746 7.86865 0.700767 7.64299 0.989274 7.49495L2.73149 6.5988L3.59401 6.1559L15.1999 0.194213C15.4482 0.0664965 15.7222 0 15.9999 0C16.2776 0 16.5515 0.0664965 16.7999 0.194213L28.4058 6.1559L29.0037 6.46304L31.4265 7.70773C31.5939 7.79335 31.7354 7.92415 31.836 8.0861Z" fill="#cfaa25"/>
<path d="M31.9995 10.3876V17.3566C31.9996 17.0054 31.9016 16.6615 31.7171 16.3658C31.5435 16.0865 31.2995 15.8609 31.011 15.7128L28.7802 14.5671L28.4057 14.3747L16.7995 8.41299C16.5511 8.28531 16.2772 8.21881 15.9995 8.21878V4.10938C16.2772 4.10941 16.5511 4.1759 16.7995 4.30358L27.9995 10.0568L28.4054 10.2653L30.4987 11.3404C30.6568 11.4216 30.8325 11.4599 31.009 11.4518C31.1856 11.4436 31.3572 11.3892 31.5076 11.2938C31.6579 11.1983 31.782 11.065 31.8681 10.9064C31.9542 10.7478 31.9994 10.5692 31.9995 10.3876Z" fill="#D9D9D9"/>
<path d="M28.4054 19.6197V24.979C28.4062 25.1816 28.3503 25.3802 28.2445 25.5512C28.1387 25.7222 27.9873 25.8584 27.8084 25.9437L27.8054 25.9452C27.6642 26.0135 27.5096 26.0479 27.3535 26.0456C27.1974 26.0432 27.0439 26.0043 26.9047 25.9318L23.3358 24.0987L16.7995 20.7411C16.5511 20.6135 16.2772 20.547 15.9995 20.5469V12.3281C16.2772 12.3282 16.5511 12.3946 16.7995 12.5223L25.9334 17.2141L27.4167 17.9751C27.7137 18.1278 27.9635 18.3625 28.1381 18.6528C28.3127 18.9431 28.4053 19.2776 28.4054 19.6188V19.6197Z" fill="#D9D9D9"/>
<path d="M8.64767 15.8879L4.97776 17.773L3.59406 18.4838L2.58873 19.0013C1.3994 19.6113 8.29784e-08 18.7228 8.29784e-08 17.3566V9.1378C-0.000104099 8.78657 0.0978973 8.44268 0.282369 8.14697L4.01569 10.0647C3.88471 10.1639 3.7783 10.2934 3.70505 10.4427C3.63181 10.5919 3.59379 10.7568 3.59406 10.924V12.6512C3.59334 12.8512 3.64778 13.0473 3.75108 13.2169C3.85439 13.3864 4.00232 13.5224 4.17776 13.6091L8.64767 15.8879Z" fill="#cfaa25"/>
<path d="M3.98843 30.6096L1.49955 31.8881C1.34146 31.969 1.16586 32.0071 0.989412 31.9988C0.812964 31.9904 0.641511 31.9359 0.491312 31.8405C0.341112 31.745 0.217144 31.6116 0.131161 31.4531C0.0451785 31.2946 3.11279e-05 31.1162 7.37818e-08 30.9347V29.2078C-7.47038e-05 29.0044 0.0566921 28.8053 0.163555 28.634L3.98843 30.6096Z" fill="#cfaa25"/>
<path d="M32 8.66059V10.3878C32 10.5693 31.9547 10.7479 31.8687 10.9065C31.7826 11.0651 31.6585 11.1984 31.5081 11.2939C31.3578 11.3893 31.1861 11.4437 31.0096 11.4519C30.833 11.4601 30.6573 11.4217 30.4992 11.3405L28.4059 10.2654L28 10.0569L31.8361 8.08618C31.9432 8.25756 32.0001 8.45694 32 8.66059Z" fill="#cfaa25"/>
<path d="M32.0002 17.3566V29.6848C32.0002 31.051 30.6008 31.9395 29.4115 31.3286L28.4062 30.8111L23.3691 28.2237L27.805 25.9434L27.8079 25.9419C27.9869 25.8567 28.1382 25.7205 28.2441 25.5495C28.3499 25.3785 28.4057 25.1799 28.405 24.9773V19.6198C28.405 19.1377 28.2206 18.6749 27.8915 18.3313L31.7152 16.3667C31.9004 16.6619 31.9994 17.0054 32.0002 17.3566Z" fill="#cfaa25"/>
</svg>
